<?xml version="1.0" encoding="UTF-8"?>
<svg xmlns="http://www.w3.org/2000/svg" xmlns:xlink="http://www.w3.org/1999/xlink" width="32px" height="32px" viewBox="0 0 32 32" version="1.1">
<defs>
<clipPath id="clip1">
  <path d="M 1 1 L 31 1 L 31 31 L 1 31 Z M 1 1 "/>
</clipPath>
<clipPath id="clip2">
  <path d="M 2.667969 18.667969 C 1.195312 17.195312 1.195312 14.804688 2.667969 13.332031 L 13.332031 2.667969 C 14.804688 1.195312 17.195312 1.195312 18.667969 2.667969 L 29.332031 13.332031 C 30.804688 14.804688 30.804688 17.195312 29.332031 18.667969 L 18.667969 29.332031 C 17.195312 30.804688 14.804688 30.804688 13.332031 29.332031 Z M 2.667969 18.667969 "/>
</clipPath>
<clipPath id="clip3">
  <path d="M 1 10 L 11 10 L 11 22 L 1 22 Z M 1 10 "/>
</clipPath>
<clipPath id="clip4">
  <path d="M 2.667969 18.667969 C 1.195312 17.195312 1.195312 14.804688 2.667969 13.332031 L 13.332031 2.667969 C 14.804688 1.195312 17.195312 1.195312 18.667969 2.667969 L 29.332031 13.332031 C 30.804688 14.804688 30.804688 17.195312 29.332031 18.667969 L 18.667969 29.332031 C 17.195312 30.804688 14.804688 30.804688 13.332031 29.332031 Z M 2.667969 18.667969 "/>
</clipPath>
<clipPath id="clip5">
  <path d="M 5 16 L 16 16 L 16 27 L 5 27 Z M 5 16 "/>
</clipPath>
<clipPath id="clip6">
  <path d="M 2.667969 18.667969 C 1.195312 17.195312 1.195312 14.804688 2.667969 13.332031 L 13.332031 2.667969 C 14.804688 1.195312 17.195312 1.195312 18.667969 2.667969 L 29.332031 13.332031 C 30.804688 14.804688 30.804688 17.195312 29.332031 18.667969 L 18.667969 29.332031 C 17.195312 30.804688 14.804688 30.804688 13.332031 29.332031 Z M 2.667969 18.667969 "/>
</clipPath>
<clipPath id="clip7">
  <path d="M 10 21 L 22 21 L 22 31 L 10 31 Z M 10 21 "/>
</clipPath>
<clipPath id="clip8">
  <path d="M 2.667969 18.667969 C 1.195312 17.195312 1.195312 14.804688 2.667969 13.332031 L 13.332031 2.667969 C 14.804688 1.195312 17.195312 1.195312 18.667969 2.667969 L 29.332031 13.332031 C 30.804688 14.804688 30.804688 17.195312 29.332031 18.667969 L 18.667969 29.332031 C 17.195312 30.804688 14.804688 30.804688 13.332031 29.332031 Z M 2.667969 18.667969 "/>
</clipPath>
<clipPath id="clip9">
  <path d="M 5 5 L 16 5 L 16 16 L 5 16 Z M 5 5 "/>
</clipPath>
<clipPath id="clip10">
  <path d="M 2.667969 18.667969 C 1.195312 17.195312 1.195312 14.804688 2.667969 13.332031 L 13.332031 2.667969 C 14.804688 1.195312 17.195312 1.195312 18.667969 2.667969 L 29.332031 13.332031 C 30.804688 14.804688 30.804688 17.195312 29.332031 18.667969 L 18.667969 29.332031 C 17.195312 30.804688 14.804688 30.804688 13.332031 29.332031 Z M 2.667969 18.667969 "/>
</clipPath>
<clipPath id="clip11">
  <path d="M 10 10 L 22 10 L 22 22 L 10 22 Z M 10 10 "/>
</clipPath>
<clipPath id="clip12">
  <path d="M 2.667969 18.667969 C 1.195312 17.195312 1.195312 14.804688 2.667969 13.332031 L 13.332031 2.667969 C 14.804688 1.195312 17.195312 1.195312 18.667969 2.667969 L 29.332031 13.332031 C 30.804688 14.804688 30.804688 17.195312 29.332031 18.667969 L 18.667969 29.332031 C 17.195312 30.804688 14.804688 30.804688 13.332031 29.332031 Z M 2.667969 18.667969 "/>
</clipPath>
<clipPath id="clip13">
  <path d="M 16 16 L 27 16 L 27 27 L 16 27 Z M 16 16 "/>
</clipPath>
<clipPath id="clip14">
  <path d="M 2.667969 18.667969 C 1.195312 17.195312 1.195312 14.804688 2.667969 13.332031 L 13.332031 2.667969 C 14.804688 1.195312 17.195312 1.195312 18.667969 2.667969 L 29.332031 13.332031 C 30.804688 14.804688 30.804688 17.195312 29.332031 18.667969 L 18.667969 29.332031 C 17.195312 30.804688 14.804688 30.804688 13.332031 29.332031 Z M 2.667969 18.667969 "/>
</clipPath>
<clipPath id="clip15">
  <path d="M 10 1 L 22 1 L 22 11 L 10 11 Z M 10 1 "/>
</clipPath>
<clipPath id="clip16">
  <path d="M 2.667969 18.667969 C 1.195312 17.195312 1.195312 14.804688 2.667969 13.332031 L 13.332031 2.667969 C 14.804688 1.195312 17.195312 1.195312 18.667969 2.667969 L 29.332031 13.332031 C 30.804688 14.804688 30.804688 17.195312 29.332031 18.667969 L 18.667969 29.332031 C 17.195312 30.804688 14.804688 30.804688 13.332031 29.332031 Z M 2.667969 18.667969 "/>
</clipPath>
<clipPath id="clip17">
  <path d="M 16 5 L 27 5 L 27 16 L 16 16 Z M 16 5 "/>
</clipPath>
<clipPath id="clip18">
  <path d="M 2.667969 18.667969 C 1.195312 17.195312 1.195312 14.804688 2.667969 13.332031 L 13.332031 2.667969 C 14.804688 1.195312 17.195312 1.195312 18.667969 2.667969 L 29.332031 13.332031 C 30.804688 14.804688 30.804688 17.195312 29.332031 18.667969 L 18.667969 29.332031 C 17.195312 30.804688 14.804688 30.804688 13.332031 29.332031 Z M 2.667969 18.667969 "/>
</clipPath>
<clipPath id="clip19">
  <path d="M 21 10 L 31 10 L 31 22 L 21 22 Z M 21 10 "/>
</clipPath>
<clipPath id="clip20">
  <path d="M 2.667969 18.667969 C 1.195312 17.195312 1.195312 14.804688 2.667969 13.332031 L 13.332031 2.667969 C 14.804688 1.195312 17.195312 1.195312 18.667969 2.667969 L 29.332031 13.332031 C 30.804688 14.804688 30.804688 17.195312 29.332031 18.667969 L 18.667969 29.332031 C 17.195312 30.804688 14.804688 30.804688 13.332031 29.332031 Z M 2.667969 18.667969 "/>
</clipPath>
</defs>
<g id="surface1">
<g clip-path="url(#clip1)" clip-rule="nonzero">
<g clip-path="url(#clip2)" clip-rule="nonzero">
<path style=" stroke:none;fill-rule:nonzero;fill:rgb(100%,100%,100%);fill-opacity:1;" d="M 2.667969 18.667969 C 1.195312 17.195312 1.195312 14.804688 2.667969 13.332031 L 13.332031 2.667969 C 14.804688 1.195312 17.195312 1.195312 18.667969 2.667969 L 29.332031 13.332031 C 30.804688 14.804688 30.804688 17.195312 29.332031 18.667969 L 18.667969 29.332031 C 17.195312 30.804688 14.804688 30.804688 13.332031 29.332031 Z M 2.667969 18.667969 "/>
</g>
</g>
<g clip-path="url(#clip3)" clip-rule="nonzero">
<g clip-path="url(#clip4)" clip-rule="nonzero">
<path style=" stroke:none;fill-rule:nonzero;fill:rgb(5.882353%,41.176471%,68.627451%);fill-opacity:1;" d="M 0 16 L 5.332031 10.667969 L 10.667969 16 L 5.332031 21.332031 Z M 0 16 "/>
</g>
</g>
<g clip-path="url(#clip5)" clip-rule="nonzero">
<g clip-path="url(#clip6)" clip-rule="nonzero">
<path style=" stroke:none;fill-rule:nonzero;fill:rgb(58.823529%,84.313725%,82.352941%);fill-opacity:1;" d="M 5.332031 21.332031 L 10.667969 16 L 16 21.332031 L 10.667969 26.667969 Z M 5.332031 21.332031 "/>
</g>
</g>
<g clip-path="url(#clip7)" clip-rule="nonzero">
<g clip-path="url(#clip8)" clip-rule="nonzero">
<path style=" stroke:none;fill-rule:nonzero;fill:rgb(100%,86.27451%,72.54902%);fill-opacity:1;" d="M 10.667969 26.667969 L 16 21.332031 L 21.332031 26.667969 L 16 32 Z M 10.667969 26.667969 "/>
</g>
</g>
<g clip-path="url(#clip9)" clip-rule="nonzero">
<g clip-path="url(#clip10)" clip-rule="nonzero">
<path style=" stroke:none;fill-rule:nonzero;fill:rgb(5.882353%,41.176471%,68.627451%);fill-opacity:1;" d="M 5.332031 10.667969 L 10.667969 5.332031 L 16 10.667969 L 10.667969 16 Z M 5.332031 10.667969 "/>
</g>
</g>
<g clip-path="url(#clip11)" clip-rule="nonzero">
<g clip-path="url(#clip12)" clip-rule="nonzero">
<path style=" stroke:none;fill-rule:nonzero;fill:rgb(97.254902%,97.254902%,98.823529%);fill-opacity:1;" d="M 10.667969 16 L 16 10.667969 L 21.332031 16 L 16 21.332031 Z M 10.667969 16 "/>
</g>
</g>
<g clip-path="url(#clip13)" clip-rule="nonzero">
<g clip-path="url(#clip14)" clip-rule="nonzero">
<path style=" stroke:none;fill-rule:nonzero;fill:rgb(58.823529%,84.313725%,82.352941%);fill-opacity:1;" d="M 16 21.332031 L 21.332031 16 L 26.667969 21.332031 L 21.332031 26.667969 Z M 16 21.332031 "/>
</g>
</g>
<g clip-path="url(#clip15)" clip-rule="nonzero">
<g clip-path="url(#clip16)" clip-rule="nonzero">
<path style=" stroke:none;fill-rule:nonzero;fill:rgb(5.882353%,41.176471%,68.627451%);fill-opacity:1;" d="M 10.667969 5.332031 L 16 0 L 21.332031 5.332031 L 16 10.667969 Z M 10.667969 5.332031 "/>
</g>
</g>
<g clip-path="url(#clip17)" clip-rule="nonzero">
<g clip-path="url(#clip18)" clip-rule="nonzero">
<path style=" stroke:none;fill-rule:nonzero;fill:rgb(5.882353%,41.176471%,68.627451%);fill-opacity:1;" d="M 16 10.667969 L 21.332031 5.332031 L 26.667969 10.667969 L 21.332031 16 Z M 16 10.667969 "/>
</g>
</g>
<g clip-path="url(#clip19)" clip-rule="nonzero">
<g clip-path="url(#clip20)" clip-rule="nonzero">
<path style=" stroke:none;fill-rule:nonzero;fill:rgb(5.882353%,41.176471%,68.627451%);fill-opacity:1;" d="M 21.332031 16 L 26.667969 10.667969 L 32 16 L 26.667969 21.332031 Z M 21.332031 16 "/>
</g>
</g>
</g>
</svg>
